<svg xmlns="http://www.w3.org/2000/svg" xmlns:xlink="http://www.w3.org/1999/xlink" width="171" height="38" viewBox="0 0 171 38">
    <defs>
        <path id="a" d="M37.457 33.843c2.445.55 4.694.744 6.749.65-2.859.618-6.193.62-10-.236C23.5 31.846 17.337 22.637 9.162 22.513a12.312 12.312 0 0 1 1.922-.36c8.86-.941 15.093 9.15 26.373 11.69zm24.486-14.387c-1.432 7.73-9.22 15.242-22.646 12.218-11.279-2.542-17.462-11.677-26.373-11.692C4.745 19.971.169 26.91 0 27.167c.068-.342 2.432-11.664 14.967-10.982 11.98.65 21.559 15.62 34.892 11.39 12.897-4.09 9.2-19.687-1.567-20.088-10.768-.404-11.718 8.985-6.947 12.115 3.92 2.57 9.66-.935 8.9-5.475 0 0 2.255 5.373-3.445 7.693-5.47 2.226-10.19-2.502-10.844-6.923-.94-6.344 4.556-11.565 11.878-11.761 9.059-.243 15.54 8.596 14.109 16.32zM33.64 10.72c-1.378 6 1.728 11.953 7.116 14.36a12.953 12.953 0 0 1-1.001-.179c-6.832-1.524-11.097-8.31-9.525-15.156C31.802 2.901 38.49-.697 45.447.112c.922.107 2.767.448 3.766.841C42.73.038 35.135 4.211 33.64 10.721zm13.44 3.93c0 1.477-1.214 2.673-2.711 2.673-1.497 0-2.711-1.196-2.711-2.673 0-1.476 1.214-2.672 2.71-2.672 1.498 0 2.712 1.196 2.712 2.672zm1.731-4.924c3.96.364 6.954 3.245 6.891 7.34-.063 4.096-3.115 6.874-6.571 7.459-.769.13-1.318.149-2.196.132 3.35-.54 6.348-3.953 6.405-7.626.056-3.673-3.051-6.871-7.92-7.196 1.856-.28 2.99-.146 3.391-.11zm30.733 13.2H77.1V8.408c0-.17-.028-.355-.086-.553a1.28 1.28 0 0 0-.345-.553c-.172-.17-.427-.316-.762-.44-.335-.122-.781-.184-1.337-.184-.517 0-.935.062-1.25.185-.317.123-.562.279-.734.467a1.331 1.331 0 0 0-.33.581 2.371 2.371 0 0 0-.072.553V22.927h-2.416V7.982c0-.207.039-.505.115-.893.077-.387.278-.77.604-1.148.326-.377.815-.704 1.466-.978.652-.274 1.553-.41 2.703-.41s2.051.136 2.703.41c.651.274 1.14.6 1.467.978.325.378.526.761.603 1.148.077.388.115.686.115.893v14.945zm10.725-3.94h.029V8.69h-.029v-.312c0-.17-.028-.354-.086-.553a1.274 1.274 0 0 0-.345-.552c-.173-.17-.427-.317-.762-.44-.336-.122-.781-.184-1.337-.184-.518 0-.935.062-1.251.184-.316.123-.56.28-.733.468a1.33 1.33 0 0 0-.33.581 2.358 2.358 0 0 0-.073.553V19.242c0 .17.024.354.072.552.048.199.158.388.33.567.173.18.418.331.734.454s.733.184 1.25.184c.557 0 1.002-.06 1.338-.184.335-.123.59-.27.762-.44.172-.17.288-.354.345-.552.058-.199.086-.373.086-.525v-.311zm2.444.425v.283c0 .227-.038.53-.114.907-.078.379-.279.756-.604 1.134-.327.379-.816.704-1.467.978-.652.274-1.553.412-2.703.412s-2.051-.138-2.703-.412c-.651-.274-1.14-.6-1.466-.978-.326-.378-.527-.76-.604-1.148-.076-.387-.115-.685-.115-.893V7.954c0-.208.039-.506.115-.893.077-.387.278-.77.604-1.148.326-.378.815-.704 1.466-.978.652-.274 1.553-.411 2.703-.411s2.051.137 2.703.41c.651.275 1.14.6 1.467.979.325.378.526.76.604 1.148.076.387.114.685.114.893v11.458zm6.484-4.512c.259-.095.532-.189.82-.284.287-.094.575-.193.862-.298.288-.103.546-.193.777-.269l.345-.113c.114-.038.22-.076.316-.114.479-.17.79-.406.934-.708.144-.303.216-.567.216-.794V8.408c0-.17-.029-.355-.086-.553a1.23 1.23 0 0 0-.36-.553c-.182-.17-.436-.316-.762-.44-.326-.122-.767-.184-1.322-.184-.518 0-.935.062-1.251.185-.317.123-.56.279-.734.467a1.337 1.337 0 0 0-.33.581 2.346 2.346 0 0 0-.072.553v6.662c.173-.056.388-.132.647-.226zm5.276 8.027l-3.105-6.383c-.211.076-.403.146-.575.212a5.179 5.179 0 0 1-.46.156l-.432.142c-.23.076-.45.17-.66.284a1.44 1.44 0 0 0-.46.41c-.135.18-.212.403-.23.667v4.512h-2.445V7.982c0-.207.038-.505.115-.893.076-.387.278-.77.604-1.148.325-.377.814-.704 1.466-.978s1.553-.41 2.703-.41 2.05.136 2.703.41c.651.274 1.14.6 1.466.978.326.378.527.761.604 1.148.077.388.115.686.115.893v4.734c0 .606-.168 1.182-.503 1.73-.336.548-.906.983-1.711 1.304l3.393 7.177h-2.588zm12.25-14.208v-.255a1.74 1.74 0 0 0-.446-1.204c-.298-.33-.695-.497-1.194-.497h-3.278v14.18h3.278c.499 0 .896-.166 1.194-.496a1.7 1.7 0 0 0 .445-1.177V8.719zm2.414 10.268v.737c0 .359-.067.727-.2 1.105a3.143 3.143 0 0 1-1.61 1.8c-.404.199-.883.298-1.439.298H109.362V4.78h6.526c.556 0 1.035.1 1.438.298a3.142 3.142 0 0 1 1.61 1.8c.134.378.201.746.201 1.105v11.005zm13.169.708c0 .227-.038.53-.115.907-.077.379-.278.756-.603 1.134-.327.379-.816.704-1.467.978-.652.274-1.553.412-2.703.412s-2.051-.138-2.703-.412c-.652-.274-1.14-.6-1.466-.978-.326-.378-.528-.76-.604-1.148a4.955 4.955 0 0 1-.115-.893v-3.113h2.415v2.66c0 .17.024.354.072.552.047.199.158.388.331.568.172.18.417.33.733.453s.733.184 1.25.184c.557 0 .997-.06 1.323-.184.326-.123.58-.27.762-.44.183-.17.303-.354.36-.552.057-.199.086-.373.086-.525v-3.09c0-.227-.067-.496-.201-.808-.135-.312-.45-.553-.949-.722l-.431-.142a5.855 5.855 0 0 1-.46-.17l-2.157-.709a.45.45 0 0 0-.173-.057c-1.092-.32-1.86-.784-2.3-1.39-.441-.604-.661-1.246-.661-1.927V7.954c0-.208.038-.505.115-.893.076-.387.278-.77.604-1.148.325-.378.814-.704 1.466-.978s1.553-.411 2.703-.411 2.051.137 2.703.41c.651.275 1.14.6 1.467.979.325.378.526.76.603 1.148.077.388.115.685.115.893v.737h-2.444v-.312c0-.17-.029-.354-.086-.553a1.225 1.225 0 0 0-.36-.552c-.182-.17-.436-.317-.762-.44-.326-.122-.766-.184-1.322-.184-.518 0-.935.062-1.251.184-.316.123-.56.28-.733.468a1.331 1.331 0 0 0-.331.581 2.37 2.37 0 0 0-.072.553V9.858c0 .246.072.52.216.822.144.303.464.539.963.709.077.038.173.076.288.114l.345.113c.345.113.742.246 1.193.397.45.151.867.302 1.25.453.384.095.71.208.978.34.345.114.648.28.906.496.26.218.484.468.676.752.364.529.546 1.115.546 1.758v3.883zm11.76 3.232l-3.105-8.788c-.212.076-1.917.662-2.128.793-.172.114-.33.26-.474.44-.144.18-.216.41-.216.695V22.927h-2.444V4.78h2.444v7.942l.647-.212c.259-.086.527-.18.805-.284a322.64 322.64 0 0 1 2.314-.808c.48-.17.791-.406.935-.709.144-.302.216-.576.216-.822V4.78h2.415v5.533c0 .605-.168 1.181-.503 1.729-.336.548-.906.983-1.711 1.304l3.393 9.582h-2.588zm13.646 0h-5.636c-.556 0-1.035-.1-1.437-.298a3.137 3.137 0 0 1-1.007-.765 3.214 3.214 0 0 1-.604-1.035 3.29 3.29 0 0 1-.201-1.105V7.982c0-.359.067-.727.201-1.105a3.22 3.22 0 0 1 .604-1.035 3.14 3.14 0 0 1 1.007-.765c.402-.199.881-.298 1.437-.298h5.636v2.225H152.88c-.498 0-.896.165-1.193.496-.297.33-.446.733-.446 1.205V11.53h5.205v2.24h-5.205v5.259c0 .454.149.847.446 1.177.297.331.695.496 1.193.496H157.712v2.225zm13.169 0h-2.444V8.408a2 2 0 0 0-.086-.553 1.28 1.28 0 0 0-.345-.553c-.173-.17-.427-.316-.762-.44-.336-.122-.781-.184-1.338-.184-.517 0-.934.062-1.25.185-.316.123-.56.279-.733.467a1.334 1.334 0 0 0-.331.581 2.383 2.383 0 0 0-.072.553V22.927h-2.415V7.982c0-.207.038-.505.115-.893.076-.387.277-.77.604-1.148.325-.377.814-.704 1.466-.978.651-.274 1.553-.41 2.703-.41s2.05.136 2.703.41c.651.274 1.14.6 1.466.978.326.378.527.761.604 1.148.077.388.115.686.115.893v14.945zM74.427 30.57l-.82.053c-.045-.731-.61-1.166-1.44-1.166-.943 0-1.428.496-1.428 1.131 0 .774.617.94 1.605 1.166 1.42.33 2.277.67 2.277 1.81 0 1.304-1.06 1.878-2.347 1.878-1.385 0-2.444-.678-2.506-1.896l.812-.044c.061.766.776 1.244 1.694 1.244.873 0 1.526-.348 1.526-1.14 0-.774-.653-.956-1.747-1.209-1.182-.278-2.135-.556-2.135-1.792 0-.991.733-1.844 2.232-1.844 1.297 0 2.224.661 2.277 1.81zm2.17 2.445v.261c0 1 .617 1.514 1.437 1.514.856 0 1.51-.583 1.51-1.644 0-1.07-.654-1.653-1.51-1.653-.82 0-1.438.513-1.438 1.522zm3.723.122c0 1.435-.936 2.305-2.171 2.305-.759 0-1.306-.322-1.562-.748v2.88h-.758v-6.655h.723v.73c.256-.46.82-.809 1.597-.809 1.235 0 2.17.87 2.17 2.297zm1.737-.322h2.717c-.017-.774-.459-1.322-1.314-1.322-.777 0-1.35.46-1.403 1.322zm0 .61c.044.851.617 1.365 1.411 1.365.662 0 1.112-.296 1.262-.792l.759.044c-.185.8-.962 1.4-2.003 1.4-1.288 0-2.232-.861-2.232-2.305 0-1.444.935-2.297 2.214-2.297 1.289 0 2.065.862 2.065 2.175v.41h-3.476zm4.71 1.93v-6.759h.759v6.76h-.759zm2.92-.356c0 .678-.3 1.26-.997 1.652v-.339c.31-.226.477-.53.52-.887a.507.507 0 0 1-.511-.496c0-.278.212-.513.503-.513.309 0 .485.243.485.583zm8.32.356h-.989l-2.435-3.114-.794.879v2.235h-.811v-6.507h.811v3.088l2.815-3.088h1.041l-2.523 2.766 2.885 3.741zm3.801 0v-.66c-.167.356-.6.747-1.35.747-1.005 0-1.64-.722-1.64-1.783v-2.74h.758v2.635c0 .723.38 1.184 1.06 1.184.714 0 1.137-.575 1.137-1.227v-2.592h.759v4.436h-.724zm2.258 0v-6.759h.759v6.76h-.759zm4.473-.66v.669c-.15.026-.327.052-.609.052-.82 0-1.394-.417-1.385-1.392l.009-2.453h-.838v-.652h.838l.008-1.531h.768l-.008 1.53h1.208v.653h-1.208l-.018 2.305c0 .644.353.862.794.862.185 0 .335-.027.441-.044zm3.935.66v-.66c-.168.356-.6.747-1.35.747-1.006 0-1.641-.722-1.641-1.783v-2.74h.758v2.635c0 .723.38 1.184 1.06 1.184.714 0 1.137-.575 1.137-1.227v-2.592h.759v4.436h-.723zm4.322-3.767c-.803 0-1.306.54-1.306 1.218v2.549h-.759v-4.436h.742v.67c.158-.366.582-.723 1.323-.723v.722zm6.308 2.401l-1.835-1.618-.23-.2c-.476.33-.785.74-.785 1.366 0 .74.511 1.218 1.35 1.218.556 0 1.067-.244 1.5-.766zm.529.47c-.574.67-1.27.966-2.047.966-1.403 0-2.153-.783-2.153-1.818 0-.879.477-1.436 1.147-1.888-.326-.365-.564-.783-.564-1.314 0-1.078.75-1.644 1.8-1.644.944 0 1.65.548 1.773 1.47l-.776.053c-.08-.531-.442-.835-.997-.835-.592 0-.989.313-.989.948 0 .609.468.974 1.015 1.452l1.685 1.488c.203-.383.38-.861.53-1.418l.714.191c-.194.688-.423 1.253-.697 1.714l1.156 1.018-.494.592-1.103-.975zm9.501.896h-.988l-2.435-3.114-.794.879v2.235h-.812v-6.507h.812v3.088l2.814-3.088h1.042l-2.524 2.766 2.885 3.741zm2.964-3.767c-.804 0-1.307.54-1.307 1.218v2.549h-.758v-4.436h.74v.67c.16-.366.583-.723 1.325-.723v.722zm1.384 1.227h2.718c-.018-.774-.459-1.322-1.315-1.322-.776 0-1.35.46-1.403 1.322zm0 .61c.044.851.618 1.365 1.412 1.365.662 0 1.112-.296 1.262-.792l.758.044c-.185.8-.961 1.4-2.002 1.4-1.288 0-2.233-.861-2.233-2.305 0-1.444.936-2.297 2.215-2.297 1.288 0 2.065.862 2.065 2.175v.41h-3.477zm5.179-.288c0 1.07.653 1.653 1.508 1.653.83 0 1.447-.514 1.447-1.523v-.26c0-1-.617-1.514-1.447-1.514-.855 0-1.508.583-1.508 1.644zm3-1.488v-.73h.714v4.436h-.715v-.722c-.255.461-.829.81-1.597.81-1.235 0-2.17-.87-2.17-2.297 0-1.436.935-2.306 2.17-2.306.768 0 1.342.34 1.597.81zm4.428 3.045v.67c-.15.026-.327.052-.61.052-.82 0-1.393-.417-1.385-1.392l.01-2.453h-.839v-.652h.838l.01-1.531h.767l-.009 1.53h1.209v.653h-1.209l-.017 2.305c0 .644.352.862.793.862.186 0 .336-.027.442-.044zm.978.66V30.92h.759v4.436h-.759zm.892-6.036c0 .27-.23.487-.503.487a.492.492 0 0 1-.503-.487.5.5 0 0 1 .503-.496.5.5 0 0 1 .503.496zm.732 1.6h.864l1.394 2.897 1.385-2.896h.856l-2.24 4.523-2.26-4.523zm5.354 4.437v-4.436h.759v4.436h-.759zm.891-6.037c0 .27-.229.487-.502.487a.492.492 0 0 1-.503-.487.5.5 0 0 1 .503-.496.5.5 0 0 1 .502.496zm3.582 5.376v.67a3.27 3.27 0 0 1-.609.052c-.82 0-1.394-.417-1.385-1.392l.009-2.453h-.838v-.652h.838l.009-1.531h.767l-.008 1.53h1.208v.653h-1.208l-.018 2.305c0 .644.353.862.794.862.185 0 .335-.027.441-.044zM164 32.815h2.717c-.017-.774-.458-1.322-1.314-1.322-.777 0-1.35.46-1.403 1.322zm0 .61c.044.851.617 1.365 1.412 1.365.661 0 1.111-.296 1.261-.792l.759.044c-.185.8-.962 1.4-2.003 1.4-1.288 0-2.232-.861-2.232-2.305 0-1.444.935-2.297 2.215-2.297 1.288 0 2.064.862 2.064 2.175v.41H164zm6.881 1.27v.669c-.15.026-.327.052-.609.052-.82 0-1.394-.417-1.385-1.392l.009-2.453h-.838v-.652h.838l.008-1.531h.768l-.009 1.53h1.21v.653h-1.21l-.017 2.305c0 .644.353.862.794.862.185 0 .335-.027.441-.044z"/>
    </defs>
    <use fill="#FFF" fill-rule="evenodd" transform="translate(0 .24)" xlink:href="#a"/>
</svg>
